<?xml version="1.0" standalone="no"?><!DOCTYPE svg PUBLIC "-//W3C//DTD SVG 1.1//EN" "http://www.w3.org/Graphics/SVG/1.1/DTD/svg11.dtd"><svg t="1771573801122" class="icon" viewBox="0 0 1024 1024" version="1.1" xmlns="http://www.w3.org/2000/svg" p-id="34077" xmlns:xlink="http://www.w3.org/1999/xlink" width="128" height="128"><path d="M512 0a512 512 0 1 0 512 512A511.8208 511.8208 0 0 0 512 0z m143.36 583.7568a35.5968 35.5968 0 0 1 35.84 34.56 34.7392 34.7392 0 0 1-35.84 34.56h-108.6848v104.896a34.7392 34.7392 0 0 1-35.84 34.56 35.5968 35.5968 0 0 1-35.84-34.56v-104.9984H368.64a35.5968 35.5968 0 0 1-35.84-34.56 34.7392 34.7392 0 0 1 35.84-34.56h106.24v-70.4h-106.24a35.5968 35.5968 0 0 1-35.84-34.56 34.7392 34.7392 0 0 1 35.84-34.56h106.24v-21.76L343.04 290.7648a35.3024 35.3024 0 0 1 49.92-49.92l120.32 117.76 113.92-117.76a35.2896 35.2896 0 1 1 51.0848 48.64L546.6752 426.24v16.576h108.8a35.5968 35.5968 0 0 1 35.84 34.56 34.7392 34.7392 0 0 1-35.84 34.56h-108.8v70.4h108.8v1.536H655.36z" fill="#FF9B43" p-id="34078"></path></svg>