<?xml version="1.0" standalone="no"?><!DOCTYPE svg PUBLIC "-//W3C//DTD SVG 1.1//EN" "http://www.w3.org/Graphics/SVG/1.1/DTD/svg11.dtd"><svg t="1771574066980" class="icon" viewBox="0 0 1024 1024" version="1.1" xmlns="http://www.w3.org/2000/svg" p-id="46996" xmlns:xlink="http://www.w3.org/1999/xlink" width="128" height="128"><path d="M511.674 273.4S312.853 180.76 68.84 194.317l47.449 648.437s180.746-18.067 395.385 110.71c0 0 189.794-124.264 379.573-110.71l63.26-648.437S776.01 180.76 511.674 273.4z m-31.637 600.992c-149.11-81.342-316.307-79.086-316.307-79.086L132.1 241.764c171.712-9.04 347.937 94.897 347.937 94.897v537.73z m379.572-79.086c-149.116-15.81-316.313 79.086-316.313 79.086V336.66c173.983-99.41 363.763-94.897 363.763-94.897l-47.45 553.542z" fill="#D81E06" p-id="46997"></path><path d="M132.1 131.056v31.637s158.157 23.718 189.787 47.45l79.078 31.622S355.496 138.962 132.1 131.055z" fill="#D81E06" p-id="46998"></path><path d="M163.73 67.796l15.818 47.449s213.51 33.61 268.865 142.331h47.435S369.335 73.73 163.73 67.796zM622.381 241.764l79.086-31.623c31.623-23.73 189.779-47.449 189.779-47.449v-31.637c-223.402 7.907-268.865 110.71-268.865 110.71z" fill="#D81E06" p-id="46999"></path><path d="M527.485 257.576h47.449c55.354-108.722 268.864-142.331 268.864-142.331l15.811-47.449c-205.604 5.933-332.124 189.78-332.124 189.78z" fill="#D81E06" p-id="47000"></path></svg>