<?xml version="1.0" standalone="no"?><!DOCTYPE svg PUBLIC "-//W3C//DTD SVG 1.1//EN" "http://www.w3.org/Graphics/SVG/1.1/DTD/svg11.dtd"><svg t="1771573567367" class="icon" viewBox="0 0 1024 1024" version="1.1" xmlns="http://www.w3.org/2000/svg" p-id="16989" xmlns:xlink="http://www.w3.org/1999/xlink" width="128" height="128"><path d="M716.35 944.2H309.5c-131.29 0-238.1-106.8-238.1-238.1s106.8-238.11 238.1-238.11h406.85c131.29 0 238.1 106.82 238.1 238.11s-106.81 238.1-238.1 238.1zM309.5 543.8c-89.48 0-162.28 72.8-162.28 162.3 0 89.48 72.8 162.28 162.28 162.28h406.85c89.48 0 162.28-72.8 162.28-162.28 0-89.5-72.8-162.3-162.28-162.3H309.5z" fill="#11dbb4" p-id="16990"></path><path d="M314.73 814.88c-59.99 0-108.78-48.79-108.78-108.78s48.79-108.78 108.78-108.78 108.78 48.79 108.78 108.78-48.78 108.78-108.78 108.78z m0-141.75c-18.18 0-32.97 14.79-32.97 32.97s14.79 32.97 32.97 32.97 32.97-14.79 32.97-32.97-14.79-32.97-32.97-32.97zM513 543.69c-20.94 0-37.91-16.97-37.91-37.91v-167.9c0-57.75 46.98-104.73 104.73-104.73 28.1 0 54.44 10.87 74.15 30.58 19.21 19.2 30.06 44.68 30.58 71.76l-37.91 2.39h-37.91c-0.13-8.33-3.11-15.27-8.37-20.55-5.4-5.39-12.7-8.37-20.55-8.37-15.94 0-28.91 12.98-28.91 28.91v167.91c0.01 20.94-16.97 37.91-37.9 37.91z" fill="#11dbb4" p-id="16991"></path><path d="M713.48 440.92c-56.16 0-103.14-45.74-104.73-101.97l37.89-2.76h37.91c0.43 16.21 13.42 28.91 28.93 28.91 14.47 0 26.97-11.4 28.43-25.97l0.15-214.5c-3.41-20.66 10.66-40.44 31.32-43.85 20.58-3.37 40.24 10.29 43.67 30.95 0.63 3.89 0.83 8.39 0.83 12.9v211.55c0 4.22-0.11 7.83-0.7 12.03-5.21 52.21-49.87 92.71-103.7 92.71z" fill="#11dbb4" p-id="16992"></path><path d="M713.46 638.58m-33.76 0a33.76 33.76 0 1 0 67.52 0 33.76 33.76 0 1 0-67.52 0Z" fill="#11dbb4" p-id="16993"></path><path d="M713.46 773.61m-33.76 0a33.76 33.76 0 1 0 67.52 0 33.76 33.76 0 1 0-67.52 0Z" fill="#11dbb4" p-id="16994"></path><path d="M780.97 706.09m-33.76 0a33.76 33.76 0 1 0 67.52 0 33.76 33.76 0 1 0-67.52 0Z" fill="#11dbb4" p-id="16995"></path><path d="M646.54 706.09m-33.76 0a33.76 33.76 0 1 0 67.52 0 33.76 33.76 0 1 0-67.52 0Z" fill="#11dbb4" p-id="16996"></path></svg>