<?xml version="1.0" standalone="no"?><!DOCTYPE svg PUBLIC "-//W3C//DTD SVG 1.1//EN" "http://www.w3.org/Graphics/SVG/1.1/DTD/svg11.dtd"><svg t="1771575071837" class="icon" viewBox="0 0 1024 1024" version="1.1" xmlns="http://www.w3.org/2000/svg" p-id="73203" xmlns:xlink="http://www.w3.org/1999/xlink" width="128" height="128"><path d="M512.1 131.5c51.5 0 101.4 10.1 148.3 29.9 45.4 19.2 86.1 46.7 121.1 81.7s62.5 75.8 81.7 121.1c19.8 46.9 29.9 96.8 29.9 148.3S883 613.9 863.2 660.8c-19.2 45.4-46.7 86.1-81.7 121.1s-75.8 62.5-121.1 81.7c-46.9 19.8-96.8 29.9-148.3 29.9s-101.4-10.1-148.3-29.9c-45.4-19.2-86.1-46.7-121.1-81.7s-62.5-75.8-81.7-121.1c-19.8-46.9-29.9-96.8-29.9-148.3s10.1-101.4 29.9-148.3c19.2-45.4 46.7-86.1 81.7-121.1s75.8-62.5 121.1-81.7c46.9-19.8 96.8-29.9 148.3-29.9m0-64c-245.8 0-445 199.2-445 445s199.2 445 445 445 445-199.2 445-445-199.2-445-445-445z" fill="#edb60e" p-id="73204"></path><path d="M502.4 523c-10.9 0-21.6-5.6-27.5-15.7l-101.7-171c-9-15.2-4-34.8 11.2-43.9 15.2-9 34.8-4 43.9 11.2l101.7 171c9 15.2 4 34.8-11.2 43.9-5.2 3.1-10.9 4.5-16.4 4.5z" fill="#edb60e" p-id="73205"></path><path d="M521.6 523c-5.6 0-11.2-1.5-16.3-4.5-15.2-9-20.2-28.7-11.2-43.9l101.7-171c9-15.2 28.7-20.2 43.9-11.2s20.2 28.7 11.2 43.9l-101.7 171c-6 10.1-16.6 15.7-27.6 15.7z" fill="#edb60e" p-id="73206"></path><path d="M638.1 544.1h-252c-17.7 0-32-14.3-32-32s14.3-32 32-32h252c17.7 0 32 14.3 32 32s-14.3 32-32 32zM638.1 660.1h-252c-17.7 0-32-14.3-32-32s14.3-32 32-32h252c17.7 0 32 14.3 32 32s-14.3 32-32 32z" fill="#edb60e" p-id="73207"></path><path d="M511.3 779c-17.7 0-32-14.3-32-32V511.3c0-17.7 14.3-32 32-32s32 14.3 32 32V747c0 17.7-14.3 32-32 32z" fill="#edb60e" p-id="73208"></path></svg>