<?xml version="1.0" standalone="no"?><!DOCTYPE svg PUBLIC "-//W3C//DTD SVG 1.1//EN" "http://www.w3.org/Graphics/SVG/1.1/DTD/svg11.dtd"><svg t="1771574005092" class="icon" viewBox="0 0 1024 1024" version="1.1" xmlns="http://www.w3.org/2000/svg" p-id="43498" xmlns:xlink="http://www.w3.org/1999/xlink" width="128" height="128"><path d="M1009.44195 428.7L556.24195 66.2c-21.7-22.1-44.2-24.3-76.8-14.8-9.5 5.5-163.2 128.7-461.1 369.8-23 22.3-23 51.9-7.6 74 23 22.2 53.7 22.2 76.8 7.4l7.7-7.4 30.7-29.6v414.2c7.7 59.2 53.8 103.6 115.2 96.2h293V711.3c0-31.8 17-61.2 44.5-77.1 27.6-15.9 61.5-15.9 89 0 27.6 15.9 44.5 45.3 44.5 77.1v264.9H779.04195c61.4 0 107.6-44.4 115.2-96.2V473.1l38.4 29.6c23 22.2 53.8 22.2 76.8 0 15.4-22.2 23.1-51.8 0-74zM421.64195 699.2c0 24.5-19.9 44.4-44.5 44.4h-76.7c-24.6 0-44.5-19.9-44.5-44.4v-71.5c0-24.5 19.9-44.4 44.4-44.4h76.8c11.8 0 23.1 4.7 31.4 13 8.3 8.3 13 19.6 13 31.4v71.5z" fill="#E05C34" p-id="43499"></path></svg>