<?xml version="1.0" standalone="no"?><!DOCTYPE svg PUBLIC "-//W3C//DTD SVG 1.1//EN" "http://www.w3.org/Graphics/SVG/1.1/DTD/svg11.dtd"><svg t="1771574601471" class="icon" viewBox="0 0 1024 1024" version="1.1" xmlns="http://www.w3.org/2000/svg" p-id="33911" xmlns:xlink="http://www.w3.org/1999/xlink" width="128" height="128"><path d="M942.08 757.76v40.96l-327.68 102.4-286.72-79.4624v58.9824h-245.76v-450.56h326.4512l252.3136 94.208a118.3744 118.3744 0 0 1 76.5952 110.592h81.92c67.9936 0 122.88 54.8864 122.88 122.88z m-696.32 40.96v-286.72h-81.92v286.72h81.92z m610.304-58.5728c-6.5536-13.5168-20.8896-22.9376-36.864-22.9376h-219.136c-22.1184 0-43.8272-3.6864-64.7168-10.6496l-97.4848-32.3584 25.8048-77.824 97.4848 32.3584c12.6976 4.096 94.208 6.144 94.208 6.144 0-15.1552-9.4208-28.672-23.3472-33.9968L393.6256 512H327.68v224.4608l285.4912 79.0528 242.8928-75.3664z" p-id="33912" fill="#e6d317"></path><path d="M921.6 296.96a204.8 204.8 0 1 0-409.6 0 204.8 204.8 0 0 0 409.6 0zM728.18688 327.68H614.4V266.24h113.78688V220.16L819.2 296.96l-91.01312 76.8V327.68z" p-id="33913" fill="#e6d317"></path></svg>