<?xml version="1.0" standalone="no"?><!DOCTYPE svg PUBLIC "-//W3C//DTD SVG 1.1//EN" "http://www.w3.org/Graphics/SVG/1.1/DTD/svg11.dtd"><svg t="1771575306903" class="icon" viewBox="0 0 1024 1024" version="1.1" xmlns="http://www.w3.org/2000/svg" p-id="105260" xmlns:xlink="http://www.w3.org/1999/xlink" width="128" height="128"><path d="M746.74717 351.637736c-153.116981 0-277.25283 124.618868-277.25283 277.25283s124.618868 277.25283 277.25283 277.25283 277.25283-124.618868 277.25283-277.25283-124.618868-277.25283-277.25283-277.25283z m0 496.543396c-120.754717 0-219.290566-98.535849-219.290566-219.290566s98.535849-219.290566 219.290566-219.290566 219.290566 98.535849 219.290566 219.290566-98.535849 219.290566-219.290566 219.290566z" fill="#E89B46" p-id="105261"></path><path d="M845.766038 495.577358c-7.245283-7.728302-19.320755-8.211321-27.532076-0.966037l-71.969811 66.173585-71.969811-66.173585c-7.728302-7.245283-20.286792-6.762264-27.532076 0.966037-7.245283 7.728302-6.762264 20.286792 0.966038 27.532076L724.528302 594.113208h-57.962264c-10.626415 0-19.320755 8.69434-19.320755 19.320754s8.69434 19.320755 19.320755 19.320755h59.894339v31.879245H666.566038c-10.626415 0-19.320755 8.69434-19.320755 19.320755s8.69434 19.320755 19.320755 19.320755h60.377358v45.886792c0 10.626415 8.69434 19.320755 19.320755 19.320755s19.320755-8.69434 19.320755-19.320755v-45.886792h59.894339c10.626415 0 19.320755-8.69434 19.320755-19.320755s-8.69434-19.320755-19.320755-19.320755h-60.377358V632.754717H825.962264c10.626415 0 19.320755-8.69434 19.320755-19.320755s-8.69434-19.320755-19.320755-19.320754h-59.411321l76.8-71.003774c9.177358-7.245283 9.660377-19.320755 2.415095-27.532076z" fill="#E89B46" p-id="105262"></path><path d="M424.090566 720.181132H57.962264V175.818868h697.962264V280.150943c0 15.939623 13.041509 28.981132 28.981132 28.981132s28.981132-13.041509 28.981132-28.981132V146.837736c0-15.939623-13.041509-28.981132-28.981132-28.981132H28.981132c-15.939623 0-28.981132 13.041509-28.981132 28.981132v602.324528c0 15.939623 13.041509 28.981132 28.981132 28.981132h395.109434c15.939623 0 28.981132-13.041509 28.981132-28.981132s-13.041509-28.981132-28.981132-28.981132z" fill="#E89B46" p-id="105263"></path><path d="M184.996226 456.935849m-60.860377 0a60.860377 60.860377 0 1 0 121.720755 0 60.860377 60.860377 0 1 0-121.720755 0Z" fill="#E89B46" p-id="105264"></path><path d="M380.135849 456.935849m-60.860377 0a60.860377 60.860377 0 1 0 121.720754 0 60.860377 60.860377 0 1 0-121.720754 0Z" fill="#E89B46" p-id="105265"></path></svg>