<?xml version="1.0" standalone="no"?><!DOCTYPE svg PUBLIC "-//W3C//DTD SVG 1.1//EN" "http://www.w3.org/Graphics/SVG/1.1/DTD/svg11.dtd"><svg t="1771574796328" class="icon" viewBox="0 0 1024 1024" version="1.1" xmlns="http://www.w3.org/2000/svg" p-id="45568" xmlns:xlink="http://www.w3.org/1999/xlink" width="128" height="128"><path d="M512 512m-512 0a512 512 0 1 0 1024 0 512 512 0 1 0-1024 0Z" fill="#1E6EFA" p-id="45569"></path><path d="M280 448a72 72 0 1 1 0 144 72 72 0 0 1 0-144z m230.4 0a72 72 0 1 1 0 144 72 72 0 0 1 0-144z m230.4 0a72 72 0 1 1 0 144 72 72 0 0 1 0-144z" fill="#FFFFFF" p-id="45570"></path></svg>