<?xml version="1.0" standalone="no"?><!DOCTYPE svg PUBLIC "-//W3C//DTD SVG 1.1//EN" "http://www.w3.org/Graphics/SVG/1.1/DTD/svg11.dtd"><svg t="1771575326798" class="icon" viewBox="0 0 1024 1024" version="1.1" xmlns="http://www.w3.org/2000/svg" p-id="107205" xmlns:xlink="http://www.w3.org/1999/xlink" width="128" height="128"><path d="M742.64381 899.169524c-150.186667 0-272.579048-122.392381-272.579048-272.579048s122.392381-272.579048 272.579048-272.579047 272.579048 122.392381 272.579047 272.579047-122.392381 272.579048-272.579047 272.579048z m0-487.619048c-118.979048 0-215.527619 96.548571-215.52762 215.527619s96.548571 215.527619 215.52762 215.527619c118.979048 0 215.527619-96.548571 215.527619-215.527619s-97.03619-215.527619-215.527619-215.527619z" fill="#1296db" p-id="107206"></path><path d="M742.64381 604.647619c-4.388571 0-9.264762-1.462857-12.678096-4.87619l-83.382857-77.04381c-7.801905-7.314286-8.289524-19.017143-0.975238-26.819048s19.017143-8.289524 26.819048-0.975238l70.704762 64.853334 70.704761-64.853334c7.801905-7.314286 19.504762-6.826667 26.819048 0.975238 7.314286 7.801905 6.826667 19.504762-0.975238 26.819048L755.321905 599.771429c-3.413333 3.413333-8.289524 4.87619-12.678095 4.87619z" fill="#1296db" p-id="107207"></path><path d="M821.638095 630.491429h-157.013333c-10.24 0-19.017143-8.289524-19.017143-19.017143s8.289524-19.017143 19.017143-19.017143h157.013333c10.24 0 19.017143 8.289524 19.017143 19.017143s-8.289524 19.017143-19.017143 19.017143zM821.150476 699.733333h-156.038095c-10.24 0-19.017143-8.289524-19.017143-19.017143 0-10.24 8.289524-19.017143 19.017143-19.017142h156.038095c10.24 0 19.017143 8.289524 19.017143 19.017142 0 10.24-8.777143 19.017143-19.017143 19.017143z" fill="#1296db" p-id="107208"></path><path d="M743.131429 763.611429c-10.24 0-19.017143-8.289524-19.017143-19.017143l-0.487619-158.96381c0-10.24 8.289524-19.017143 19.017143-19.017143 10.24 0 19.017143 8.289524 19.017142 19.017143l0.487619 158.96381c0 10.727619-8.289524 19.017143-19.017142 19.017143z" fill="#1296db" p-id="107209"></path><path d="M425.691429 773.36381H37.546667c-15.60381 0-28.281905-12.678095-28.281905-28.281905V153.112381c0-15.60381 12.678095-28.281905 28.281905-28.281905H780.190476c15.60381 0 28.281905 12.678095 28.281905 28.281905v130.681905c0 15.60381-12.678095 28.281905-28.281905 28.281904-15.60381 0-28.281905-12.678095-28.281905-28.281904v-102.4H65.828571v534.918095h359.375239c15.60381 0 28.281905 12.678095 28.281904 28.281905 0.487619 16.091429-12.190476 28.769524-27.794285 28.769524z" fill="#1296db" p-id="107210"></path><path d="M190.659048 457.874286m-59.977143 0a59.977143 59.977143 0 1 0 119.954285 0 59.977143 59.977143 0 1 0-119.954285 0Z" fill="#1296db" p-id="107211"></path><path d="M382.293333 457.874286m-59.977143 0a59.977143 59.977143 0 1 0 119.954286 0 59.977143 59.977143 0 1 0-119.954286 0Z" fill="#1296db" p-id="107212"></path></svg>