<?xml version="1.0" standalone="no"?><!DOCTYPE svg PUBLIC "-//W3C//DTD SVG 1.1//EN" "http://www.w3.org/Graphics/SVG/1.1/DTD/svg11.dtd"><svg t="1771574693739" class="icon" viewBox="0 0 1024 1024" version="1.1" xmlns="http://www.w3.org/2000/svg" p-id="38651" xmlns:xlink="http://www.w3.org/1999/xlink" width="128" height="128"><path d="M686.08 557.3632c119.9104 0 217.3952-97.9968 217.3952-218.4192 0-120.4224-97.5872-218.4192-217.3952-218.4192-119.9104 0-217.4976 97.9968-217.4976 218.4192 0 13.5168 1.3312 27.136 3.7888 40.6528-0.7168 5.8368-1.4336 11.8784-2.048 18.432 0 0.1024-0.1024 0.4096-0.2048 0.512C335.872 287.4368 246.5792 285.184 207.7696 321.536c-42.5984 39.936-30.208 124.8256 30.3104 225.5872-70.2464 27.0336-117.6576 94.3104-117.6576 171.8272 0 101.7856 82.432 184.6272 183.808 184.6272 73.4208 0 139.5712-44.7488 168.3456-111.9232 51.5072 33.3824 102.2976 54.6816 143.6672 54.6816 23.2448 0 43.4176-6.656 59.1872-21.4016 47.4112-44.4416 26.2144-144.6912-52.0192-258.8672 8.4992-3.7888 19.1488-7.4752 33.5872-10.8544C667.4432 556.7488 676.9664 557.3632 686.08 557.3632zM428.032 764.3136c-18.944 52.0192-68.608 86.9376-123.8016 86.9376-72.6016 0-131.6864-59.392-131.6864-132.3008 0-59.5968 39.0144-110.592 95.3344-126.8736 19.8656 27.7504 41.7792 55.296 66.3552 81.8176 29.5936 31.8464 62.3616 61.5424 95.6416 87.2448C429.3632 762.2656 428.4416 763.0848 428.032 764.3136zM640 786.7392c-28.2624 26.5216-146.6368-18.2272-267.6736-148.48-27.136-29.184-51.4048-59.5968-72.192-90.2144-65.024-95.9488-77.824-168.6528-56.832-188.3136 23.2448-21.8112 102.6048 2.9696 196.3008 80.9984 0 0-0.1024 0.1024-0.1024 0.1024-30.5152 21.1968-48.64 56.32-48.64 94.5152 0 62.6688 48.4352 113.5616 108.032 113.5616 30.72 0 59.904-14.0288 80.5888-38.5024 2.6624-2.6624 3.8912-5.3248 5.8368-8.0896C646.0416 693.3504 661.9136 766.1568 640 786.7392zM650.9568 502.9888l-3.8912 0.9216c-67.4816 15.7696-87.1424 40.96-100.352 63.488-1.2288 2.048-2.8672 4.8128-3.2768 5.4272l-2.8672 3.072c-10.9568 13.4144-25.7024 20.7872-41.5744 20.7872-30.9248 0-56.0128-27.5456-56.0128-61.3376 0-21.6064 10.3424-41.1648 27.5456-52.5312l4.4032-3.6864c21.7088-22.3232 44.9536-48.5376 47.4112-76.6976 0.6144-7.2704 1.4336-13.824 2.2528-20.0704l0.6144-4.5056-0.9216-4.5056c-2.3552-11.4688-3.584-23.04-3.584-34.5088 0-91.648 74.1376-166.1952 165.376-166.1952 91.2384 0 165.376 74.5472 165.376 166.1952 0 91.648-74.24 166.1952-165.376 166.1952-7.8848 0-16.384-0.7168-26.0096-2.2528l-4.608-0.7168L650.9568 502.9888z" p-id="38652" fill="#f37e12"></path></svg>