<?xml version="1.0" standalone="no"?><!DOCTYPE svg PUBLIC "-//W3C//DTD SVG 1.1//EN" "http://www.w3.org/Graphics/SVG/1.1/DTD/svg11.dtd"><svg t="1771575265346" class="icon" viewBox="0 0 1024 1024" version="1.1" xmlns="http://www.w3.org/2000/svg" p-id="102999" xmlns:xlink="http://www.w3.org/1999/xlink" width="128" height="128"><path d="M960 512h-192a64 64 0 0 0-64 64v64a64 64 0 0 0 64 64h192v128a64 64 0 0 1-64 64H128a64 64 0 0 1-64-64V320h832a64 64 0 0 1 64 64v128zM192 128h512a64 64 0 0 1 64 64v64H64a128 128 0 0 1 128-128z m608 512a32 32 0 1 1 0-64 32 32 0 0 1 0 64z m-384 18.752V480a32 32 0 0 0-64 0v178.752l-41.344-41.408a32 32 0 1 0-45.312 45.312l96 96a32 32 0 0 0 45.312 0l96-96a32 32 0 0 0-45.312-45.312l-41.344 41.408z" fill="#3CBE96" p-id="103000"></path></svg>