<?xml version="1.0" standalone="no"?><!DOCTYPE svg PUBLIC "-//W3C//DTD SVG 1.1//EN" "http://www.w3.org/Graphics/SVG/1.1/DTD/svg11.dtd"><svg t="1771574105442" class="icon" viewBox="0 0 1024 1024" version="1.1" xmlns="http://www.w3.org/2000/svg" p-id="50236" xmlns:xlink="http://www.w3.org/1999/xlink" width="128" height="128"><path d="M781.99 0H242.01c-83.91 0.07-151.93 68.08-152 152v720.01c0.07 83.92 68.09 151.92 152 151.99h539.97c83.9-0.1 151.89-68.1 152-151.99V152C933.91 68.08 865.9 0.07 781.99 0z m71.85 871.9c-0.05 39.63-32.33 71.9-71.95 71.95H242.08c-39.62-0.03-71.89-32.29-71.92-71.91V350.27c15.93 11.94 34.13 23.05 54.49 33.19 41.27 20.56 89.55 36.19 141.96 46.3 7.75 73.37 70 130.71 145.38 130.71s137.64-57.35 145.4-130.71c52.42-10.11 100.69-25.74 141.95-46.3 20.36-10.14 38.56-21.25 54.49-33.19V871.9z m-407.9-457.63c0-21.24 10.08-40.17 25.71-52.27 11.16-8.64 25.17-13.79 40.34-13.79s29.18 5.15 40.34 13.79c15.63 12.09 25.71 31.03 25.71 52.27 0 9.51-2.01 18.55-5.65 26.73-10.29 23.14-33.49 39.32-60.41 39.32s-50.11-16.17-60.39-39.31c-3.64-8.18-5.66-17.22-5.66-26.74z m407.9-196.34c-2.91 32.71-35.16 66.58-89.46 93.62-34.78 17.32-75.78 30.59-120.64 39.32-23.66-48.95-73.83-82.8-131.74-82.8s-108.07 33.85-131.73 82.8c-44.87-8.74-85.86-22-120.64-39.32-54.31-27.04-86.55-60.91-89.46-93.62v-65.85c0.03-39.63 32.3-71.89 71.92-71.92h539.83c39.62 0.03 71.88 32.3 71.92 71.92v65.85z" fill="#d81e06" p-id="50237"></path></svg>