<?xml version="1.0" standalone="no"?><!DOCTYPE svg PUBLIC "-//W3C//DTD SVG 1.1//EN" "http://www.w3.org/Graphics/SVG/1.1/DTD/svg11.dtd"><svg t="1771574641751" class="icon" viewBox="0 0 1024 1024" version="1.1" xmlns="http://www.w3.org/2000/svg" p-id="35977" xmlns:xlink="http://www.w3.org/1999/xlink" width="128" height="128"><path d="M914.620708 174.633442C914.620708 132.087465 879.586196 97.28 836.780442 97.28L128.945226 97.28C86.193325 97.28 51.2 132.087465 51.2 174.633442L51.2 261.05387 914.619653 261.05387 914.619653 174.633442 914.620708 174.633442ZM742.952033 438.931938C808.745231 438.931938 868.819021 463.376682 914.620708 503.665946L914.620708 377.078753 51.2 377.078753 51.2 702.382449C51.2 744.924206 86.197549 779.752791 128.945226 779.752791L495.721985 779.752791C487.418502 754.323835 482.910353 727.176735 482.910353 698.973619 482.910353 555.355996 599.33547 438.931938 742.952033 438.931938L742.952033 438.931938ZM954.491786 611.119119C942.441544 583.671055 925.815572 559.423785 905.089075 538.814505 884.187274 518.222121 859.940009 501.757718 832.029409 489.716981 804.26348 477.660405 774.83327 471.72135 743.55819 471.72135 711.533338 471.72135 681.636362 477.659348 653.874662 489.716981 626.125629 501.764054 601.717847 518.222121 580.979732 538.814505 560.08427 559.423785 543.608253 583.671055 531.407002 611.119119 519.195192 638.713969 513.105126 668.003727 513.105126 698.972564 513.105126 730.688 519.201526 760.288236 531.407002 787.738409 543.609308 815.337482 560.08427 839.433743 580.979732 860.185585 601.718907 880.767411 626.119296 896.927677 653.874662 908.675896 681.636362 920.448404 711.533338 926.225889 743.55819 926.225889 774.83327 926.225889 804.26348 920.448404 832.029409 908.675896 859.940009 896.927677 884.187274 880.767411 905.089075 860.185585 925.815572 839.434798 942.441544 815.337482 954.491786 787.738409 966.704655 760.288236 972.8 730.68906 972.8 698.972564 972.8 668.003727 966.70571 638.713969 954.491786 611.119119L954.491786 611.119119ZM872.196173 805.660119C858.751985 768.7554 823.351035 742.393979 781.790326 742.393979L781.790326 838.842373C781.790326 852.174618 770.978796 862.979814 757.646546 862.979814 749.311386 862.979814 741.960433 858.753623 737.626527 852.322463L602.563722 717.267046C597.198085 712.834934 593.774469 706.135547 593.774469 698.635694 593.774469 691.922575 596.52329 685.852575 600.939561 681.475374L600.909993 681.446861 741.410248 540.948721 741.569705 541.102899C745.838136 537.283277 751.473055 534.958976 757.646546 534.958976 770.978796 534.958976 781.790326 545.77473 781.790326 559.102756L781.790326 632.054707C842.729001 632.054707 892.133821 681.45214 892.133821 742.391869 892.126433 765.932662 884.752246 787.748972 872.196173 805.660119L872.196173 805.660119Z" fill="#0bb116" p-id="35978"></path></svg>