<?xml version="1.0" standalone="no"?><!DOCTYPE svg PUBLIC "-//W3C//DTD SVG 1.1//EN" "http://www.w3.org/Graphics/SVG/1.1/DTD/svg11.dtd"><svg t="1771573587213" class="icon" viewBox="0 0 1024 1024" version="1.1" xmlns="http://www.w3.org/2000/svg" p-id="23199" xmlns:xlink="http://www.w3.org/1999/xlink" width="128" height="128"><path d="M985.305 503.628h-18.949c1.228 5.404 0 13.132 0 18.914v208.053c0 31.381-29.776 45.431-56.845 56.746-0.338 11.382 0 14.371 0 18.914v37.828c0 37.424-28.431 75.653-65.554 75.653s-67.216-30.34-67.216-67.765v-45.178c0-2.55-0.132 1.937 0.138-0.537H246.34c0.272 2.474 0.138-2.013 0.138 0.537v45.178c0 37.425-30.095 67.765-67.217 67.765-37.12 0-67.215-30.34-67.215-67.765l1.663-45.715c0 4.615-0.556-15.417 0-18.914-30.771-9.309-56.845-22.69-56.845-56.746V522.542c0-6.24-1.422-13.119 0-18.914H37.918c-16.5 0-37.897-26.572-37.897-43.205v-48.945l138.124-13.925 63.525-163.021s31.634-71.036 82.566-71.356c13.578-0.085 27.053-0.018 56.844 0v-37.828c0-8.317 10.698-18.914 18.95-18.914h303.162c8.25 0 18.95 10.597 18.95 18.914v37.828c36.244-0.02 56.843 0 56.843 0s48.959-0.18 82.567 78.882c20.33 47.826 46.092 112.104 63.294 155.472l138.353 13.949v48.945c0 16.632-21.395 43.204-37.894 43.204z m-768.7 175.158c41.247 0 74.685-33.714 74.685-75.301s-33.438-75.297-74.686-75.297c-41.246 0-74.682 33.71-74.682 75.297s33.437 75.3 74.682 75.3zM780.2 257.116c-23.901-54.213-60.164-56.113-60.164-56.113s-12.68 0.02-56.845 0c-0.142 0.004-18.802 0-18.948 0H378.976c-0.276 0 0.273 0.013 0 0-25.564 0.013-44.241-0.055-56.84 0-55.733 0.254-75.794 56.742-75.794 56.742l-75.79 189.141H852.67s-48.572-135.553-72.47-189.77z m18.946 271.073c-41.248 0-74.684 33.71-74.684 75.297s33.436 75.3 74.684 75.3 74.686-33.713 74.686-75.3-33.438-75.297-74.686-75.297z" fill="#465280" p-id="23200"></path></svg>