<?xml version="1.0" standalone="no"?><!DOCTYPE svg PUBLIC "-//W3C//DTD SVG 1.1//EN" "http://www.w3.org/Graphics/SVG/1.1/DTD/svg11.dtd"><svg t="1771574881030" class="icon" viewBox="0 0 1237 1024" version="1.1" xmlns="http://www.w3.org/2000/svg" p-id="51303" xmlns:xlink="http://www.w3.org/1999/xlink" width="154.625" height="128"><path d="M1053.866667 0H153.6C68.266667 0 0 68.266667 0 153.6h1203.2c0-85.333333-68.266667-153.6-149.333333-153.6zM0 226.133333v644.266667c0 85.333333 68.266667 153.6 153.6 153.6h896c85.333333 0 153.6-68.266667 153.6-153.6V226.133333H0z m669.866667 593.066667c-8.533333 8.533333-25.6 4.266667-25.6-8.533333v-55.466667c0-8.533333-8.533333-17.066667-17.066667-17.066667H345.6c-8.533333-4.266667-12.8-8.533333-12.8-17.066666V682.666667c0-8.533333 8.533333-17.066667 17.066667-17.066667H853.333333c8.533333 4.266667 17.066667 17.066667 8.533334 29.866667l-192 123.733333z m183.466666-247.466667H345.6c-12.8-4.266667-17.066667-21.333333-8.533333-29.866666l192-123.733334c8.533333-8.533333 25.6-4.266667 25.6 8.533334v59.733333c0 8.533333 8.533333 17.066667 17.066666 17.066667H853.333333c8.533333 0 17.066667 8.533333 17.066667 17.066666v34.133334c4.266667 8.533333-4.266667 17.066667-17.066667 17.066666z" fill="#23e5c5" p-id="51304"></path></svg>